# xmcd
#
# Track frame offsets: 
#        150
#        14081
#        30757
#        60030
#        81986
#        107270
#        130574
#        149423
#        177559
#        196322
#        230525
#        244139
#        269570
#        291878
#        302590
#        318468
#        336996
#        350435
#
# Disc length: 4797 seconds
#
# Revision: 0
# Processed by: cddbd v1.5.2PL0 Copyright (c) Steve Scherf et al.
# Submitted via: ExactAudioCopy v0.99pb3
#
DISCID=0012bb12
DTITLE=Howlin' Wolf - The Blues Anthology
DYEAR=2005
DGENRE=Blues
TTITLE0=Smokestack Lightnin'
TTITLE1=Shake For Me
TTITLE2=Love Me Darlin'
TTITLE3=I Believe I'll Dust My Broom
TTITLE4=I Didn't Mean to Hurt Your Feelings
TTITLE5=Rockin' the Blues
TTITLE6=All My Life
TTITLE7=Going Down Slow
TTITLE8=Howlin' For My Baby
TTITLE9=Forty Four
TTITLE10=Highway 49
TTITLE11=Little Red Rooster
TTITLE12=Wang Dang Doodle
TTITLE13=Built For Comfort
TTITLE14=Killing Floor
TTITLE15=Poor Boy
TTITLE16=Worried About You
TTITLE17=Smile At Me
EXTD=
EXTT0=
EXTT1=
EXTT2=
EXTT3=
EXTT4=
EXTT5=
EXTT6=
EXTT7=
EXTT8=
EXTT9=
EXTT10=
EXTT11=
EXTT12=
EXTT13=
EXTT14=
EXTT15=
EXTT16=
EXTT17=
PLAYORDER=
